<?xml version="1.0" standalone="no"?>
<!DOCTYPE svg PUBLIC "-//W3C//DTD SVG 20010904//EN"
"http://www.w3.org/TR/2001/REC-SVG-20010904/DTD/svg10.dtd"
[
 <!ATTLIST svg
  xmlns:xlink CDATA #FIXED "http://www.w3.org/1999/xlink">
]>
<!-- Created with Sodipodi ("http://www.sodipodi.com/") -->
<svg
   id="svg1"
   sodipodi:version="0.28"
   width="640pt"
   height="640pt"
   sodipodi:docbase="/home/uga/MisDocumentos/Cursors/"
   sodipodi:docname="/home/uga/MisDocumentos/Cursors/left_ptr.svg"
   xmlns="http://www.w3.org/2000/svg"
   xmlns:sodipodi="http://sodipodi.sourceforge.net/DTD/sodipodi-0.dtd"
   xmlns:xlink="http://www.w3.org/1999/xlink">
  <defs
     id="defs3">
    <linearGradient
       id="linearGradient8">
      <stop
         style="stop-color:#000;stop-opacity:1;"
         offset="0"
         id="stop9" />
      <stop
         style="stop-color:#fff;stop-opacity:1;"
         offset="1"
         id="stop10" />
    </linearGradient>
    <linearGradient
       xlink:href="#linearGradient8"
       id="linearGradient11" />
    <linearGradient
       xlink:href="#linearGradient8"
       id="linearGradient12" />
    <radialGradient
       xlink:href="#linearGradient8"
       id="radialGradient31"
       cx="0.5"
       cy="0.5"
       fx="0.5"
       fy="0.5"
       r="0.5"
       gradientUnits="objectBoundingBox"
       gradientTransform="translate(-1.55528e-08,6.44504e-10)"
       spreadMethod="pad" />
  </defs>
  <sodipodi:namedview
     id="base" />
  <path
     style="font-size:12;fill:#dc000d;fill-opacity:0.719298;fill-rule:evenodd;stroke:#5e6361;stroke-width:42.375;stroke-linecap:square;stroke-linejoin:round;"
     d="M 382.555 38.6293 C 382.555 38.6293 235.514 664.174 235.514 664.174 C 235.514 664.174 584.424 661.682 584.424 661.682 C 584.424 661.682 385.047 41.1215 382.555 38.6293 z "
     id="path30"
     transform="matrix(0.379658,-0.141756,0.308492,0.826368,-123.647,61.013)" />
  <path
     style="font-size:12;fill:#ffffff;fill-opacity:0.45614;fill-rule:evenodd;stroke:#848484;stroke-width:34.0176;stroke-linejoin:round;stroke-dashoffset:0;"
     d="M 279.439 191.109 C 265.969 197.844 79.0695 644.046 102.642 672.67 C 129.583 689.508 247.448 583.43 276.072 588.481 C 297.961 581.746 430.112 677.913 453.685 671.178 C 480.625 652.656 294.593 189.425 279.439 191.109 z "
     id="path6"
     sodipodi:nodetypes="ccccc"
     transform="matrix(0.75125,-0.285363,0.340988,0.82461,-251.534,-56.755)" />
</svg>
