/* XPM */
static char * close_prelight_xpm[] = {
"20 30 84 1",
" 	c None",
".	c #B53CB5",
"+	c #B43BB4",
"@	c #B33AB3",
"#	c #B239B2",
"$	c #B138B1",
"%	c #B037B0",
"&	c #AF36AF",
"*	c #AE35AE",
"=	c #AD34AD",
"-	c #B236A7",
";	c #CA3E83",
">	c #D84361",
",	c #DF4548",
"'	c #D84461",
")	c #CB3E83",
"!	c #AC33AC",
"~	c #C03A93",
"{	c #E1464A",
"]	c #EE514A",
"^	c #F95A52",
"/	c #FE5E56",
"(	c #EE5149",
"_	c #E44942",
":	c #F95A53",
"<	c #FF5F57",
"[	c #AB32AB",
"}	c #B034A5",
"|	c #DF464A",
"1	c #B134A5",
"2	c #AA31AA",
"3	c #C83D81",
"4	c #E6504D",
"5	c #C0373C",
"6	c #E7514D",
"7	c #EE5049",
"8	c #C93D82",
"9	c #A930A9",
"0	c #D9435F",
"a	c #9F1F2C",
"b	c #9F1D2B",
"c	c #F85952",
"d	c #D84360",
"e	c #A82FA8",
"f	c #DF4549",
"g	c #C0383C",
"h	c #C1373C",
"i	c #A82EA8",
"j	c #C1383C",
"k	c #FD5E55",
"l	c #DE454A",
"m	c #A72DA7",
"n	c #D8425E",
"o	c #9F1F2B",
"p	c #E8514D",
"q	c #D7435F",
"r	c #A62CA6",
"s	c #C83B7E",
"t	c #C73A7F",
"u	c #A52BA5",
"v	c #AB2E9F",
"w	c #E04649",
"x	c #DF454B",
"y	c #AB2DA0",
"z	c #A42AA4",
"A	c #BB358D",
"B	c #BA368D",
"C	c #A329A3",
"D	c #BA358C",
"E	c #F85A52",
"F	c #A228A2",
"G	c #A92C9D",
"H	c #C63A7C",
"I	c #D7415E",
"J	c #C5397D",
"K	c #A92A9D",
"L	c #A127A1",
"M	c #A026A0",
"N	c #9F259F",
"O	c #9E249E",
"P	c #9D239D",
"Q	c #9C229C",
"R	c #9B219B",
"S	c #9A209A",
"....................",
"++++++++++++++++++++",
"@@@@@@@@@@@@@@@@@@@@",
"####################",
"$$$$$$$$$$$$$$$$$$$$",
"%%%%%%%%%%%%%%%%%%%%",
"&&&&&&&&&&&&&&&&&&&&",
"********************",
"======-;>,,')-======",
"!!!!!~{]^//^({~!!!!!",
"!!!!~_:<<<<<<:_~!!!!",
"[[[}{:<<<<<<<<:|1[[[",
"2223]<<<4556<<<78222",
"9990^<<4abba6<<cd999",
"eeef/<<gbbbbh<</feee",
"iiif/<<5bbbbj<<kliii",
"mmmn^<<6abbop<<cqmmm",
"rrrs(<<<6hhp<<<7trrr",
"uuuvw:<<<<<<<<:xyuuu",
"zzzzA_:<<<<<<:_Bzzzz",
"CCCCCDx7c//E7xDCCCCC",
"FFFFFFGHI,,IJKFFFFFF",
"LLLLLLLLLLLLLLLLLLLL",
"MMMMMMMMMMMMMMMMMMMM",
"NNNNNNNNNNNNNNNNNNNN",
"OOOOOOOOOOOOOOOOOOOO",
"PPPPPPPPPPPPPPPPPPPP",
"QQQQQQQQQQQQQQQQQQQQ",
"RRRRRRRRRRRRRRRRRRRR",
"SSSSSSSSSSSSSSSSSSSS"};
