/* XPM */
static char * close_active_xpm[] = {
"20 30 74 1",
" 	c None",
".	c #B53CB5",
"+	c #B43BB4",
"@	c #B33AB3",
"#	c #B239B2",
"$	c #B138B1",
"%	c #B037B0",
"&	c #AF36AF",
"*	c #AE35AE",
"=	c #AD34AD",
"-	c #B236A7",
";	c #CA3E83",
">	c #D84361",
",	c #DF4548",
"'	c #D84461",
")	c #CB3E83",
"!	c #AC33AC",
"~	c #C03A93",
"{	c #E1464A",
"]	c #EE514A",
"^	c #F95A52",
"/	c #FE5E56",
"(	c #EE5149",
"_	c #E44942",
":	c #F95A53",
"<	c #FF5F57",
"[	c #AB32AB",
"}	c #B034A5",
"|	c #DF464A",
"1	c #B134A5",
"2	c #AA31AA",
"3	c #C83D81",
"4	c #EE5049",
"5	c #C93D82",
"6	c #A930A9",
"7	c #D9435F",
"8	c #F85952",
"9	c #D84360",
"0	c #A82FA8",
"a	c #DF4549",
"b	c #A82EA8",
"c	c #FD5E55",
"d	c #DE454A",
"e	c #A72DA7",
"f	c #D8425E",
"g	c #D7435F",
"h	c #A62CA6",
"i	c #C83B7E",
"j	c #C73A7F",
"k	c #A52BA5",
"l	c #AB2E9F",
"m	c #E04649",
"n	c #DF454B",
"o	c #AB2DA0",
"p	c #A42AA4",
"q	c #BB358D",
"r	c #BA368D",
"s	c #A329A3",
"t	c #BA358C",
"u	c #F85A52",
"v	c #A228A2",
"w	c #A92C9D",
"x	c #C63A7C",
"y	c #D7415E",
"z	c #C5397D",
"A	c #A92A9D",
"B	c #A127A1",
"C	c #A026A0",
"D	c #9F259F",
"E	c #9E249E",
"F	c #9D239D",
"G	c #9C229C",
"H	c #9B219B",
"I	c #9A209A",
"....................",
"++++++++++++++++++++",
"@@@@@@@@@@@@@@@@@@@@",
"####################",
"$$$$$$$$$$$$$$$$$$$$",
"%%%%%%%%%%%%%%%%%%%%",
"&&&&&&&&&&&&&&&&&&&&",
"********************",
"======-;>,,')-======",
"!!!!!~{]^//^({~!!!!!",
"!!!!~_:<<<<<<:_~!!!!",
"[[[}{:<<<<<<<<:|1[[[",
"2223]<<<<<<<<<<45222",
"6667^<<<<<<<<<<89666",
"000a/<<<<<<<<<</a000",
"bbba/<<<<<<<<<<cdbbb",
"eeef^<<<<<<<<<<8geee",
"hhhi(<<<<<<<<<<4jhhh",
"kkklm:<<<<<<<<:nokkk",
"ppppq_:<<<<<<:_rpppp",
"ssssstn48//u4ntsssss",
"vvvvvvwxy,,yzAvvvvvv",
"BBBBBBBBBBBBBBBBBBBB",
"CCCCCCCCCCCCCCCCCCCC",
"DDDDDDDDDDDDDDDDDDDD",
"EEEEEEEEEEEEEEEEEEEE",
"FFFFFFFFFFFFFFFFFFFF",
"GGGGGGGGGGGGGGGGGGGG",
"HHHHHHHHHHHHHHHHHHHH",
"IIIIIIIIIIIIIIIIIIII"};
