/* XPM */
static char * close_pressed_xpm[] = {
"20 30 101 2",
"  	c None",
". 	c #B53CB5",
"+ 	c #B43BB4",
"@ 	c #B33AB3",
"# 	c #B239B2",
"$ 	c #B138B1",
"% 	c #B037B0",
"& 	c #AF36AF",
"* 	c #AE35AE",
"= 	c #B938A1",
"- 	c #CD3F7F",
"; 	c #D9435E",
"> 	c #DF4549",
", 	c #CD407F",
"' 	c #B838A2",
") 	c #AD34AD",
"! 	c #AE35AB",
"~ 	c #CD3F7C",
"{ 	c #E44845",
"] 	c #F1534B",
"^ 	c #F95A53",
"/ 	c #FE5E56",
"( 	c #F95A52",
"_ 	c #F0534C",
": 	c #E34845",
"< 	c #CE407D",
"[ 	c #AC33AC",
"} 	c #AE34AA",
"| 	c #D54269",
"1 	c #EB4F47",
"2 	c #FD5E56",
"3 	c #FF5F57",
"4 	c #EB4E47",
"5 	c #D5426A",
"6 	c #AD34AA",
"7 	c #CE3E7B",
"8 	c #CD3E7C",
"9 	c #AB32AB",
"0 	c #B7369E",
"a 	c #FD5E55",
"b 	c #E34844",
"c 	c #B6369F",
"d 	c #AA31AA",
"e 	c #CC3E7C",
"f 	c #E6504D",
"g 	c #C0373C",
"h 	c #E7514D",
"i 	c #F0524B",
"j 	c #CA3E7D",
"k 	c #A930A9",
"l 	c #D9425C",
"m 	c #9F1F2C",
"n 	c #9F1D2B",
"o 	c #D9435D",
"p 	c #A82FA8",
"q 	c #C0383C",
"r 	c #C1373C",
"s 	c #A82EA8",
"t 	c #C1383C",
"u 	c #DE454A",
"v 	c #A72DA7",
"w 	c #D9425B",
"x 	c #9F1F2B",
"y 	c #E8514D",
"z 	c #D8425C",
"A 	c #A62CA6",
"B 	c #CA3D7A",
"C 	c #F0534B",
"D 	c #C93D7B",
"E 	c #A52BA5",
"F 	c #B23199",
"G 	c #FD5D56",
"H 	c #E34843",
"I 	c #B1319A",
"J 	c #A42AA4",
"K 	c #CB3D77",
"L 	c #CA3C78",
"M 	c #A329A3",
"N 	c #A42BA1",
"O 	c #D34166",
"P 	c #D34066",
"Q 	c #A429A2",
"R 	c #A228A2",
"S 	c #A32AA0",
"T 	c #CA3B76",
"U 	c #C93B77",
"V 	c #A328A1",
"W 	c #A127A1",
"X 	c #AE2E96",
"Y 	c #C73B77",
"Z 	c #D8425A",
"` 	c #DF4548",
" .	c #C73B78",
"..	c #AE2F96",
"+.	c #A026A0",
"@.	c #9F259F",
"#.	c #9E249E",
"$.	c #9D239D",
"%.	c #9C229C",
"&.	c #9B219B",
"*.	c #9A209A",
". . . . . . . . . . . . . . . . . . . . ",
"+ + + + + + + + + + + + + + + + + + + + ",
"@ @ @ @ @ @ @ @ @ @ @ @ @ @ @ @ @ @ @ @ ",
"# # # # # # # # # # # # # # # # # # # # ",
"$ $ $ $ $ $ $ $ $ $ $ $ $ $ $ $ $ $ $ $ ",
"% % % % % % % % % % % % % % % % % % % % ",
"& & & & & & & & & & & & & & & & & & & & ",
"* * * * * * = - ; > > ; , ' * * * * * * ",
") ) ) ) ! ~ { ] ^ / / ( _ : < ! ) ) ) ) ",
"[ [ [ } | 1 2 3 3 3 3 3 3 2 4 5 6 [ [ [ ",
"[ [ [ 7 1 3 3 3 3 3 3 3 3 3 3 4 8 [ [ [ ",
"9 9 0 { 2 3 3 3 3 3 3 3 3 3 3 a b c 9 9 ",
"d d e ] 3 3 3 3 f g g h 3 3 3 3 i j d d ",
"k k l ^ 3 3 3 f m n n m h 3 3 3 ( o k k ",
"p p > / 3 3 3 q n n n n r 3 3 3 2 > p p ",
"s s > 2 3 3 3 g n n n n t 3 3 3 a u s s ",
"v v w ^ 3 3 3 h m n n x y 3 3 3 ( z v v ",
"A A B _ 3 3 3 3 h r r y 3 3 3 3 C D A A ",
"E E F b 2 3 3 3 3 3 3 3 3 3 3 G H I E E ",
"J J J K 4 3 3 3 3 3 3 3 3 3 3 4 L J J J ",
"M M M N O 4 a 3 3 3 3 3 3 G 4 P Q M M M ",
"R R R R S T H i ( / / ( C H U V R R R R ",
"W W W W W W X Y Z ` ` Z  ...W W W W W W ",
"+.+.+.+.+.+.+.+.+.+.+.+.+.+.+.+.+.+.+.+.",
"@.@.@.@.@.@.@.@.@.@.@.@.@.@.@.@.@.@.@.@.",
"#.#.#.#.#.#.#.#.#.#.#.#.#.#.#.#.#.#.#.#.",
"$.$.$.$.$.$.$.$.$.$.$.$.$.$.$.$.$.$.$.$.",
"%.%.%.%.%.%.%.%.%.%.%.%.%.%.%.%.%.%.%.%.",
"&.&.&.&.&.&.&.&.&.&.&.&.&.&.&.&.&.&.&.&.",
"*.*.*.*.*.*.*.*.*.*.*.*.*.*.*.*.*.*.*.*."};
