/* XPM */
static char * hide_prelight_xpm[] = {
"20 30 86 1",
" 	c None",
".	c #B53CB5",
"+	c #B43BB4",
"@	c #B33AB3",
"#	c #B239B2",
"$	c #B138B1",
"%	c #B037B0",
"&	c #AF36AF",
"*	c #AE35AE",
"=	c #AD34AD",
"-	c #B247A6",
";	c #C87B7E",
">	c #D79355",
",	c #DD9D33",
"'	c #D79356",
")	c #C97B7F",
"!	c #AC33AC",
"~	c #BF6890",
"{	c #DE9E36",
"]	c #EDAD28",
"^	c #F7B72C",
"/	c #FDBC2E",
"(	c #BE6891",
"_	c #E2A326",
":	c #F8B72C",
"<	c #FEBD2E",
"[	c #AB32AB",
"}	c #B045A4",
"|	c #DE9D37",
"1	c #B044A5",
"2	c #AA31AA",
"3	c #C77B7C",
"4	c #E5A729",
"5	c #C2841F",
"6	c #E7A829",
"7	c #EDAC27",
"8	c #C87B7D",
"9	c #A930A9",
"0	c #D69453",
"a	c #F7B72B",
"b	c #A16215",
"c	c #A16115",
"d	c #F7B62C",
"e	c #D69355",
"f	c #A82FA8",
"g	c #DE9D34",
"h	c #FCBC2E",
"i	c #C1841F",
"j	c #DD9D35",
"k	c #A82EA8",
"l	c #FCBC2D",
"m	c #DC9C36",
"n	c #A72DA7",
"o	c #D69353",
"p	c #A16316",
"q	c #D69254",
"r	c #A62CA6",
"s	c #C7797A",
"t	c #C6797B",
"u	c #A52BA5",
"v	c #AB419F",
"w	c #DD9C37",
"x	c #AA419F",
"y	c #A42AA4",
"z	c #BA668A",
"A	c #BA648B",
"B	c #A329A3",
"C	c #B96689",
"D	c #DD9C35",
"E	c #DD9C36",
"F	c #BA648A",
"G	c #A228A2",
"H	c #A83E9C",
"I	c #C57977",
"J	c #D59252",
"K	c #DE9D33",
"L	c #C47878",
"M	c #A73F9C",
"N	c #A127A1",
"O	c #A026A0",
"P	c #9F259F",
"Q	c #9E249E",
"R	c #9D239D",
"S	c #9C229C",
"T	c #9B219B",
"U	c #9A209A",
"....................",
"++++++++++++++++++++",
"@@@@@@@@@@@@@@@@@@@@",
"####################",
"$$$$$$$$$$$$$$$$$$$$",
"%%%%%%%%%%%%%%%%%%%%",
"&&&&&&&&&&&&&&&&&&&&",
"********************",
"======-;>,,')-======",
"!!!!!~{]^//^]{(!!!!!",
"!!!!~_:<<<<<<:_(!!!!",
"[[[}{:<<<<<<<<:|1[[[",
"2223]<<<4556<<<78222",
"9990a<<4bccb6<<de999",
"fffgh<<icccc5<<hjfff",
"kkkjh<<5cccc5<<lmkkk",
"nnnoa<<6bccp6<<dqnnn",
"rrrs]<<<6556<<<7trrr",
"uuuvj:<<<<<<<<:wxuuu",
"yyyyz_:<<<<<<:_Ayyyy",
"BBBBBCD7dhh^7EFBBBBB",
"GGGGGGHIJKKJLMGGGGGG",
"NNNNNNNNNNNNNNNNNNNN",
"OOOOOOOOOOOOOOOOOOOO",
"PPPPPPPPPPPPPPPPPPPP",
"QQQQQQQQQQQQQQQQQQQQ",
"RRRRRRRRRRRRRRRRRRRR",
"SSSSSSSSSSSSSSSSSSSS",
"TTTTTTTTTTTTTTTTTTTT",
"UUUUUUUUUUUUUUUUUUUU"};
