/* XPM */
static char * hide_pressed_xpm[] = {
"20 30 103 2",
"  	c None",
". 	c #B53CB5",
"+ 	c #B43BB4",
"@ 	c #B33AB3",
"# 	c #B239B2",
"$ 	c #B138B1",
"% 	c #B037B0",
"& 	c #AF36AF",
"* 	c #AE35AE",
"= 	c #B755A0",
"- 	c #CC8079",
"; 	c #D89452",
"> 	c #DD9D33",
", 	c #CC7F7A",
"' 	c #AD34AD",
") 	c #AE39AB",
"! 	c #CC8176",
"~ 	c #E2A128",
"{ 	c #EFAF29",
"] 	c #F8B72C",
"^ 	c #FDBC2E",
"/ 	c #F8B82C",
"( 	c #EEAF29",
"_ 	c #E1A129",
": 	c #CB8177",
"< 	c #AE3AAB",
"[ 	c #AC33AC",
"} 	c #AE38AA",
"| 	c #D48E60",
"1 	c #EAAA26",
"2 	c #FCBB2E",
"3 	c #FEBD2E",
"4 	c #EAA926",
"5 	c #D38F61",
"6 	c #AD3AAA",
"7 	c #CC8275",
"8 	c #CC8077",
"9 	c #AB32AB",
"0 	c #B5539D",
"a 	c #E2A127",
"b 	c #FCBC2D",
"c 	c #E1A229",
"d 	c #B6539E",
"e 	c #AA31AA",
"f 	c #CA7F77",
"g 	c #E5A729",
"h 	c #C2841F",
"i 	c #E7A829",
"j 	c #EEAE28",
"k 	c #CA7E78",
"l 	c #A930A9",
"m 	c #D79550",
"n 	c #A16215",
"o 	c #A16115",
"p 	c #D89451",
"q 	c #A82FA8",
"r 	c #DE9D34",
"s 	c #FCBC2E",
"t 	c #C1841F",
"u 	c #DD9D35",
"v 	c #A82EA8",
"w 	c #DC9C36",
"x 	c #A72DA7",
"y 	c #D7944F",
"z 	c #A16316",
"A 	c #D89450",
"B 	c #A62CA6",
"C 	c #C97D74",
"D 	c #EEAF28",
"E 	c #C87C75",
"F 	c #A52BA5",
"G 	c #B05198",
"H 	c #FCBB2D",
"I 	c #B14E99",
"J 	c #A42AA4",
"K 	c #C87F71",
"L 	c #E9AA27",
"M 	c #C87E72",
"N 	c #A329A3",
"O 	c #A431A1",
"P 	c #D18D5D",
"Q 	c #D28C5D",
"R 	c #A42FA2",
"S 	c #A228A2",
"T 	c #A331A0",
"U 	c #C97F70",
"V 	c #E1A228",
"W 	c #C87E71",
"X 	c #A32EA1",
"Y 	c #A127A1",
"Z 	c #AE4E95",
"` 	c #C77D72",
" .	c #D7944E",
"..	c #DE9D33",
"+.	c #C67C72",
"@.	c #AE4D95",
"#.	c #A026A0",
"$.	c #9F259F",
"%.	c #9E249E",
"&.	c #9D239D",
"*.	c #9C229C",
"=.	c #9B219B",
"-.	c #9A209A",
". . . . . . . . . . . . . . . . . . . . ",
"+ + + + + + + + + + + + + + + + + + + + ",
"@ @ @ @ @ @ @ @ @ @ @ @ @ @ @ @ @ @ @ @ ",
"# # # # # # # # # # # # # # # # # # # # ",
"$ $ $ $ $ $ $ $ $ $ $ $ $ $ $ $ $ $ $ $ ",
"% % % % % % % % % % % % % % % % % % % % ",
"& & & & & & & & & & & & & & & & & & & & ",
"* * * * * * = - ; > > ; , = * * * * * * ",
"' ' ' ' ) ! ~ { ] ^ ^ / ( _ : < ' ' ' ' ",
"[ [ [ } | 1 2 3 3 3 3 3 3 2 4 5 6 [ [ [ ",
"[ [ [ 7 1 3 3 3 3 3 3 3 3 3 3 4 8 [ [ [ ",
"9 9 0 a 2 3 3 3 3 3 3 3 3 3 3 b c d 9 9 ",
"e e f { 3 3 3 3 g h h i 3 3 3 3 j k e e ",
"l l m ] 3 3 3 g n o o n i 3 3 3 / p l l ",
"q q r s 3 3 3 t o o o o h 3 3 3 2 u q q ",
"v v u 2 3 3 3 h o o o o h 3 3 3 b w v v ",
"x x y ] 3 3 3 i n o o z i 3 3 3 / A x x ",
"B B C ( 3 3 3 3 i h h i 3 3 3 3 D E B B ",
"F F G _ 2 3 3 3 3 3 3 3 3 3 3 H c I F F ",
"J J J K 4 3 3 3 3 3 3 3 3 3 3 L M J J J ",
"N N N O P 4 b 3 3 3 3 3 3 H L Q R N N N ",
"S S S S T U V j ] s s ] D V W X S S S S ",
"Y Y Y Y Y Y Z `  ..... .+.@.Y Y Y Y Y Y ",
"#.#.#.#.#.#.#.#.#.#.#.#.#.#.#.#.#.#.#.#.",
"$.$.$.$.$.$.$.$.$.$.$.$.$.$.$.$.$.$.$.$.",
"%.%.%.%.%.%.%.%.%.%.%.%.%.%.%.%.%.%.%.%.",
"&.&.&.&.&.&.&.&.&.&.&.&.&.&.&.&.&.&.&.&.",
"*.*.*.*.*.*.*.*.*.*.*.*.*.*.*.*.*.*.*.*.",
"=.=.=.=.=.=.=.=.=.=.=.=.=.=.=.=.=.=.=.=.",
"-.-.-.-.-.-.-.-.-.-.-.-.-.-.-.-.-.-.-.-."};
