/* XPM */
static char * hide_active_xpm[] = {
"20 30 79 1",
" 	c None",
".	c #B53CB5",
"+	c #B43BB4",
"@	c #B33AB3",
"#	c #B239B2",
"$	c #B138B1",
"%	c #B037B0",
"&	c #AF36AF",
"*	c #AE35AE",
"=	c #AD34AD",
"-	c #B247A6",
";	c #C87B7E",
">	c #D79355",
",	c #DD9D33",
"'	c #D79356",
")	c #C97B7F",
"!	c #AC33AC",
"~	c #BF6890",
"{	c #DE9E36",
"]	c #EDAD28",
"^	c #F7B72C",
"/	c #FDBC2E",
"(	c #BE6891",
"_	c #E2A326",
":	c #F8B72C",
"<	c #FEBD2E",
"[	c #AB32AB",
"}	c #B045A4",
"|	c #DE9D37",
"1	c #B044A5",
"2	c #AA31AA",
"3	c #C77B7C",
"4	c #EDAC27",
"5	c #C87B7D",
"6	c #A930A9",
"7	c #D69453",
"8	c #F7B72B",
"9	c #F7B62C",
"0	c #D69355",
"a	c #A82FA8",
"b	c #DE9D34",
"c	c #FCBC2E",
"d	c #DD9D35",
"e	c #A82EA8",
"f	c #FCBC2D",
"g	c #DC9C36",
"h	c #A72DA7",
"i	c #D69353",
"j	c #D69254",
"k	c #A62CA6",
"l	c #C7797A",
"m	c #C6797B",
"n	c #A52BA5",
"o	c #AB419F",
"p	c #DD9C37",
"q	c #AA419F",
"r	c #A42AA4",
"s	c #BA668A",
"t	c #BA648B",
"u	c #A329A3",
"v	c #B96689",
"w	c #DD9C35",
"x	c #DD9C36",
"y	c #BA648A",
"z	c #A228A2",
"A	c #A83E9C",
"B	c #C57977",
"C	c #D59252",
"D	c #DE9D33",
"E	c #C47878",
"F	c #A73F9C",
"G	c #A127A1",
"H	c #A026A0",
"I	c #9F259F",
"J	c #9E249E",
"K	c #9D239D",
"L	c #9C229C",
"M	c #9B219B",
"N	c #9A209A",
"....................",
"++++++++++++++++++++",
"@@@@@@@@@@@@@@@@@@@@",
"####################",
"$$$$$$$$$$$$$$$$$$$$",
"%%%%%%%%%%%%%%%%%%%%",
"&&&&&&&&&&&&&&&&&&&&",
"********************",
"======-;>,,')-======",
"!!!!!~{]^//^]{(!!!!!",
"!!!!~_:<<<<<<:_(!!!!",
"[[[}{:<<<<<<<<:|1[[[",
"2223]<<<<<<<<<<45222",
"66678<<<<<<<<<<90666",
"aaabc<<<<<<<<<<cdaaa",
"eeedc<<<<<<<<<<fgeee",
"hhhi8<<<<<<<<<<9jhhh",
"kkkl]<<<<<<<<<<4mkkk",
"nnnod:<<<<<<<<:pqnnn",
"rrrrs_:<<<<<<:_trrrr",
"uuuuuvw49cc^4xyuuuuu",
"zzzzzzABCDDCEFzzzzzz",
"GGGGGGGGGGGGGGGGGGGG",
"HHHHHHHHHHHHHHHHHHHH",
"IIIIIIIIIIIIIIIIIIII",
"JJJJJJJJJJJJJJJJJJJJ",
"KKKKKKKKKKKKKKKKKKKK",
"LLLLLLLLLLLLLLLLLLLL",
"MMMMMMMMMMMMMMMMMMMM",
"NNNNNNNNNNNNNNNNNNNN"};
