/* XPM */
static char * maximize_inactive_xpm[] = {
"20 30 63 1",
" 	c None",
".	c #B53CB5",
"+	c #B43BB4",
"@	c #B33AB3",
"#	c #B239B2",
"$	c #B138B1",
"%	c #B037B0",
"&	c #AF36AF",
"*	c #AE35AE",
"=	c #AD34AD",
"-	c #B053B0",
";	c #C19FC1",
">	c #CBBFCB",
",	c #D0CDD0",
"'	c #C09EC0",
")	c #AC33AC",
"!	c #BA86BA",
"~	c #D6D6D6",
"{	c #DADADA",
"]	c #DCDCDC",
"^	c #B984B9",
"/	c #D2D2D2",
"(	c #AB32AB",
"_	c #AF52AF",
":	c #D1CED1",
"<	c #AE50AE",
"[	c #AA31AA",
"}	c #BF9FBF",
"|	c #D5D5D5",
"1	c #A930A9",
"2	c #CABFCA",
"3	c #D9D9D9",
"4	c #A82FA8",
"5	c #CFCDCF",
"6	c #CFCCCF",
"7	c #A82EA8",
"8	c #DBDBDB",
"9	c #A72DA7",
"0	c #A62CA6",
"a	c #BD9DBD",
"b	c #BE9DBE",
"c	c #A52BA5",
"d	c #A94EA9",
"e	c #A84BA8",
"f	c #A42AA4",
"g	c #B483B4",
"h	c #B481B4",
"i	c #A329A3",
"j	c #B482B4",
"k	c #B381B3",
"l	c #A228A2",
"m	c #A64BA6",
"n	c #BC9DBC",
"o	c #C9BEC9",
"p	c #A649A6",
"q	c #A127A1",
"r	c #A026A0",
"s	c #9F259F",
"t	c #9E249E",
"u	c #9D239D",
"v	c #9C229C",
"w	c #9B219B",
"x	c #9A209A",
"....................",
"++++++++++++++++++++",
"@@@@@@@@@@@@@@@@@@@@",
"####################",
"$$$$$$$$$$$$$$$$$$$$",
"%%%%%%%%%%%%%%%%%%%%",
"&&&&&&&&&&&&&&&&&&&&",
"********************",
"======-;>,,>'-======",
")))))!,~{]]{~,^)))))",
"))))!/{]]]]]]{/^))))",
"(((_,{]]]]]]]]{:<(((",
"[[[}~]]]]]]]]]]|'[[[",
"11123]]]]]]]]]]{2111",
"4445]]]]]]]]]]]]6444",
"7776]]]]]]]]]]]8,777",
"99923]]]]]]]]]]{2999",
"000a~]]]]]]]]]]|b000",
"cccd,{]]]]]]]]{6eccc",
"ffffg/{]]]]]]{/hffff",
"iiiiij,|{]]{|6kiiiii",
"llllllmno55onpllllll",
"qqqqqqqqqqqqqqqqqqqq",
"rrrrrrrrrrrrrrrrrrrr",
"ssssssssssssssssssss",
"tttttttttttttttttttt",
"uuuuuuuuuuuuuuuuuuuu",
"vvvvvvvvvvvvvvvvvvvv",
"wwwwwwwwwwwwwwwwwwww",
"xxxxxxxxxxxxxxxxxxxx"};
