/* XPM */
static char * maximize_pressed_xpm[] = {
"20 30 103 2",
"  	c None",
". 	c #B53CB5",
"+ 	c #B43BB4",
"@ 	c #B33AB3",
"# 	c #B239B2",
"$ 	c #B138B1",
"% 	c #B037B0",
"& 	c #AF36AF",
"* 	c #AE35AE",
"= 	c #A059A0",
"- 	c #7B887B",
"; 	c #579F56",
"> 	c #3DA83A",
", 	c #7C897B",
"' 	c #A15AA1",
") 	c #AD34AD",
"! 	c #AB3DAB",
"~ 	c #788B78",
"{ 	c #32AC31",
"] 	c #2CBA36",
"^ 	c #29C33C",
"/ 	c #28C73F",
"( 	c #33AC32",
"_ 	c #798979",
": 	c #AB3AAB",
"< 	c #AC33AC",
"[ 	c #AA3CAA",
"} 	c #649763",
"| 	c #2DB532",
"1 	c #28C83F",
"2 	c #28C940",
"3 	c #2DB533",
"4 	c #659764",
"5 	c #AA3AAA",
"6 	c #778A77",
"7 	c #798978",
"8 	c #AB32AB",
"9 	c #9E589E",
"0 	c #29C73E",
"a 	c #33AD31",
"b 	c #9E579E",
"c 	c #AA31AA",
"d 	c #798878",
"e 	c #22B334",
"f 	c #16931F",
"g 	c #22B434",
"h 	c #2CBA37",
"i 	c #7A8779",
"j 	c #A930A9",
"k 	c #559F53",
"l 	c #2AC43C",
"m 	c #0C7409",
"n 	c #0B7407",
"o 	c #569D54",
"p 	c #A82FA8",
"q 	c #16921E",
"r 	c #3EA73B",
"s 	c #A82EA8",
"t 	c #17931F",
"u 	c #3FA73C",
"v 	c #A72DA7",
"w 	c #549F52",
"x 	c #0C7509",
"y 	c #22B534",
"z 	c #559D53",
"A 	c #A62CA6",
"B 	c #768776",
"C 	c #788677",
"D 	c #A52BA5",
"E 	c #985698",
"F 	c #29C73F",
"G 	c #33AD32",
"H 	c #995399",
"I 	c #A42AA4",
"J 	c #738873",
"K 	c #2EB533",
"L 	c #758774",
"M 	c #A329A3",
"N 	c #A131A1",
"O 	c #60965F",
"P 	c #619560",
"Q 	c #A22FA2",
"R 	c #A228A2",
"S 	c #A031A0",
"T 	c #738872",
"U 	c #32AD31",
"V 	c #29C43C",
"W 	c #738773",
"X 	c #A12EA1",
"Y 	c #A127A1",
"Z 	c #955395",
"` 	c #748573",
" .	c #539D51",
"..	c #3CA839",
"+.	c #758673",
"@.	c #955195",
"#.	c #A026A0",
"$.	c #9F259F",
"%.	c #9E249E",
"&.	c #9D239D",
"*.	c #9C229C",
"=.	c #9B219B",
"-.	c #9A209A",
". . . . . . . . . . . . . . . . . . . . ",
"+ + + + + + + + + + + + + + + + + + + + ",
"@ @ @ @ @ @ @ @ @ @ @ @ @ @ @ @ @ @ @ @ ",
"# # # # # # # # # # # # # # # # # # # # ",
"$ $ $ $ $ $ $ $ $ $ $ $ $ $ $ $ $ $ $ $ ",
"% % % % % % % % % % % % % % % % % % % % ",
"& & & & & & & & & & & & & & & & & & & & ",
"* * * * * * = - ; > > ; , ' * * * * * * ",
") ) ) ) ! ~ { ] ^ / / ^ ] ( _ : ) ) ) ) ",
"< < < [ } | 1 2 2 2 2 2 2 1 3 4 5 < < < ",
"< < < 6 | 2 2 2 2 2 2 2 2 2 2 3 7 < < < ",
"8 8 9 { 1 2 2 2 2 2 2 2 2 2 2 0 a b 8 8 ",
"c c d ] 2 2 2 2 e f f g 2 2 2 2 h i c c ",
"j j k l 2 2 2 e m n n m g 2 2 2 ^ o j j ",
"p p > 1 2 2 2 q n n n n f 2 2 2 1 r p p ",
"s s r 1 2 2 2 f n n n n t 2 2 2 0 u s s ",
"v v w ^ 2 2 2 g m n n x y 2 2 2 ^ z v v ",
"A A B ] 2 2 2 2 g f f y 2 2 2 2 ] C A A ",
"D D E ( 1 2 2 2 2 2 2 2 2 2 2 F G H D D ",
"I I I J 3 2 2 2 2 2 2 2 2 2 2 K L I I I ",
"M M M N O 3 0 2 2 2 2 2 2 F K P Q M M M ",
"R R R R S T U h V 1 1 V ] U W X R R R R ",
"Y Y Y Y Y Y Z `  ..... .+.@.Y Y Y Y Y Y ",
"#.#.#.#.#.#.#.#.#.#.#.#.#.#.#.#.#.#.#.#.",
"$.$.$.$.$.$.$.$.$.$.$.$.$.$.$.$.$.$.$.$.",
"%.%.%.%.%.%.%.%.%.%.%.%.%.%.%.%.%.%.%.%.",
"&.&.&.&.&.&.&.&.&.&.&.&.&.&.&.&.&.&.&.&.",
"*.*.*.*.*.*.*.*.*.*.*.*.*.*.*.*.*.*.*.*.",
"=.=.=.=.=.=.=.=.=.=.=.=.=.=.=.=.=.=.=.=.",
"-.-.-.-.-.-.-.-.-.-.-.-.-.-.-.-.-.-.-.-."};
