/* XPM */
static char * maximize_prelight_xpm[] = {
"20 30 90 1",
" 	c None",
".	c #B53CB5",
"+	c #B43BB4",
"@	c #B33AB3",
"#	c #B239B2",
"$	c #B138B1",
"%	c #B037B0",
"&	c #AF36AF",
"*	c #AE35AE",
"=	c #AD34AD",
"-	c #A74AA7",
";	c #808480",
">	c #5A9D59",
",	c #3DA83A",
"'	c #5B9D5A",
")	c #818380",
"!	c #AC33AC",
"~	c #916F91",
"{	c #3FA93D",
"]	c #2CB835",
"^	c #29C33B",
"/	c #28C73F",
"(	c #2CB834",
"_	c #926E91",
":	c #30AE2F",
"<	c #2AC43C",
"[	c #28C940",
"}	c #29C33C",
"|	c #AB32AB",
"1	c #A548A5",
"2	c #3EA93C",
"3	c #3FAA3D",
"4	c #A547A5",
"5	c #AA31AA",
"6	c #7E837E",
"7	c #22B334",
"8	c #16931F",
"9	c #22B434",
"0	c #2DB834",
"a	c #7F827E",
"b	c #A930A9",
"c	c #589C56",
"d	c #2AC23B",
"e	c #0C7409",
"f	c #0B7407",
"g	c #2AC33C",
"h	c #599C58",
"i	c #A82FA8",
"j	c #28C83F",
"k	c #16921E",
"l	c #3EA73B",
"m	c #A82EA8",
"n	c #17931F",
"o	c #29C73E",
"p	c #3FA73C",
"q	c #A72DA7",
"r	c #589D56",
"s	c #0C7509",
"t	c #22B534",
"u	c #589C57",
"v	c #A62CA6",
"w	c #7C827B",
"x	c #7C817C",
"y	c #A52BA5",
"z	c #9F449F",
"A	c #3DA93B",
"B	c #3FA83D",
"C	c #A0419F",
"D	c #A42AA4",
"E	c #8B6B8B",
"F	c #8C6B8B",
"G	c #A329A3",
"H	c #8A6B8A",
"I	c #3EA83C",
"J	c #2AC23C",
"K	c #A228A2",
"L	c #9C419C",
"M	c #798178",
"N	c #579B55",
"O	c #3CA839",
"P	c #7A8179",
"Q	c #9D3F9C",
"R	c #A127A1",
"S	c #A026A0",
"T	c #9F259F",
"U	c #9E249E",
"V	c #9D239D",
"W	c #9C229C",
"X	c #9B219B",
"Y	c #9A209A",
"....................",
"++++++++++++++++++++",
"@@@@@@@@@@@@@@@@@@@@",
"####################",
"$$$$$$$$$$$$$$$$$$$$",
"%%%%%%%%%%%%%%%%%%%%",
"&&&&&&&&&&&&&&&&&&&&",
"********************",
"======-;>,,')-======",
"!!!!!~{]^//^({_!!!!!",
"!!!!~:<[[[[[[}:_!!!!",
"|||12<[[[[[[[[}34|||",
"5556][[[7889[[[0a555",
"bbbcd[[7effe9[[ghbbb",
"iii,j[[kffff8[[jliii",
"mmmlj[[8ffffn[[opmmm",
"qqqrd[[9effst[[guqqq",
"vvvw([[[988t[[[0xvvv",
"yyyzA}[[[[[[[[}BCyyy",
"DDDDE:}[[[[[[}:FDDDD",
"GGGGGHI0gjjJ0BEGGGGG",
"KKKKKKLMNOONPQKKKKKK",
"RRRRRRRRRRRRRRRRRRRR",
"SSSSSSSSSSSSSSSSSSSS",
"TTTTTTTTTTTTTTTTTTTT",
"UUUUUUUUUUUUUUUUUUUU",
"VVVVVVVVVVVVVVVVVVVV",
"WWWWWWWWWWWWWWWWWWWW",
"XXXXXXXXXXXXXXXXXXXX",
"YYYYYYYYYYYYYYYYYYYY"};
