/* XPM */
static char * maximize_active_xpm[] = {
"20 30 81 1",
" 	c None",
".	c #B53CB5",
"+	c #B43BB4",
"@	c #B33AB3",
"#	c #B239B2",
"$	c #B138B1",
"%	c #B037B0",
"&	c #AF36AF",
"*	c #AE35AE",
"=	c #AD34AD",
"-	c #A74AA7",
";	c #808480",
">	c #5A9D59",
",	c #3DA83A",
"'	c #5B9D5A",
")	c #818380",
"!	c #AC33AC",
"~	c #916F91",
"{	c #3FA93D",
"]	c #2CB835",
"^	c #29C33B",
"/	c #28C73F",
"(	c #2CB834",
"_	c #926E91",
":	c #30AE2F",
"<	c #2AC43C",
"[	c #28C940",
"}	c #29C33C",
"|	c #AB32AB",
"1	c #A548A5",
"2	c #3EA93C",
"3	c #3FAA3D",
"4	c #A547A5",
"5	c #AA31AA",
"6	c #7E837E",
"7	c #2DB834",
"8	c #7F827E",
"9	c #A930A9",
"0	c #589C56",
"a	c #2AC23B",
"b	c #2AC33C",
"c	c #599C58",
"d	c #A82FA8",
"e	c #28C83F",
"f	c #3EA73B",
"g	c #A82EA8",
"h	c #29C73E",
"i	c #3FA73C",
"j	c #A72DA7",
"k	c #589D56",
"l	c #589C57",
"m	c #A62CA6",
"n	c #7C827B",
"o	c #7C817C",
"p	c #A52BA5",
"q	c #9F449F",
"r	c #3DA93B",
"s	c #3FA83D",
"t	c #A0419F",
"u	c #A42AA4",
"v	c #8B6B8B",
"w	c #8C6B8B",
"x	c #A329A3",
"y	c #8A6B8A",
"z	c #3EA83C",
"A	c #2AC23C",
"B	c #A228A2",
"C	c #9C419C",
"D	c #798178",
"E	c #579B55",
"F	c #3CA839",
"G	c #7A8179",
"H	c #9D3F9C",
"I	c #A127A1",
"J	c #A026A0",
"K	c #9F259F",
"L	c #9E249E",
"M	c #9D239D",
"N	c #9C229C",
"O	c #9B219B",
"P	c #9A209A",
"....................",
"++++++++++++++++++++",
"@@@@@@@@@@@@@@@@@@@@",
"####################",
"$$$$$$$$$$$$$$$$$$$$",
"%%%%%%%%%%%%%%%%%%%%",
"&&&&&&&&&&&&&&&&&&&&",
"********************",
"======-;>,,')-======",
"!!!!!~{]^//^({_!!!!!",
"!!!!~:<[[[[[[}:_!!!!",
"|||12<[[[[[[[[}34|||",
"5556][[[[[[[[[[78555",
"9990a[[[[[[[[[[bc999",
"ddd,e[[[[[[[[[[efddd",
"gggfe[[[[[[[[[[higgg",
"jjjka[[[[[[[[[[bljjj",
"mmmn([[[[[[[[[[7ommm",
"pppqr}[[[[[[[[}stppp",
"uuuuv:}[[[[[[}:wuuuu",
"xxxxxyz7beeA7svxxxxx",
"BBBBBBCDEFFEGHBBBBBB",
"IIIIIIIIIIIIIIIIIIII",
"JJJJJJJJJJJJJJJJJJJJ",
"KKKKKKKKKKKKKKKKKKKK",
"LLLLLLLLLLLLLLLLLLLL",
"MMMMMMMMMMMMMMMMMMMM",
"NNNNNNNNNNNNNNNNNNNN",
"OOOOOOOOOOOOOOOOOOOO",
"PPPPPPPPPPPPPPPPPPPP"};
