/* XPM */
static char * title_3_inactive_xpm[] = {
"5 30 30 1",
" 	c None",
".	c #B53CB5",
"+	c #B43BB4",
"@	c #B33AB3",
"#	c #B239B2",
"$	c #B138B1",
"%	c #B037B0",
"&	c #AF36AF",
"*	c #AE35AE",
"=	c #AD34AD",
"-	c #AC33AC",
";	c #AB32AB",
">	c #AA31AA",
",	c #A930A9",
"'	c #A82FA8",
")	c #A82EA8",
"!	c #A72DA7",
"~	c #A62CA6",
"{	c #A52BA5",
"]	c #A42AA4",
"^	c #A329A3",
"/	c #A228A2",
"(	c #A127A1",
"_	c #A026A0",
":	c #9F259F",
"<	c #9E249E",
"[	c #9D239D",
"}	c #9C229C",
"|	c #9B219B",
"1	c #9A209A",
".....",
"+++++",
"@@@@@",
"#####",
"$$$$$",
"%%%%%",
"&&&&&",
"*****",
"=====",
"-----",
"-----",
";;;;;",
">>>>>",
",,,,,",
"'''''",
")))))",
"!!!!!",
"~~~~~",
"{{{{{",
"]]]]]",
"^^^^^",
"/////",
"(((((",
"_____",
":::::",
"<<<<<",
"[[[[[",
"}}}}}",
"|||||",
"11111"};
