/* XPM */
static char * close_active_xpm[] = {
"20 30 32 1",
" 	c None",
".	c #034F84",
"+	c #474E80",
"@	c #A74B68",
"#	c #CD4852",
"$	c #DD4644",
"%	c #CD4952",
"&	c #A84B67",
"*	c #894C73",
"=	c #DE4745",
"-	c #EE514A",
";	c #F95A52",
">	c #FE5E56",
",	c #EE5149",
"'	c #E44941",
")	c #F95A53",
"!	c #FF5F57",
"~	c #DC4745",
"{	c #494F80",
"]	c #EE5049",
"^	c #CE4851",
"/	c #F85952",
"(	c #DC4644",
"_	c #DC4645",
":	c #FD5E55",
"<	c #DB4745",
"[	c #A64A68",
"}	c #DC4746",
"|	c #864D73",
"1	c #DC4747",
"2	c #F85A52",
"3	c #CC4852",
"....................",
"....................",
"....................",
"....................",
"....................",
"....................",
"....................",
"....................",
"......+@#$$%&+......",
".....*=-;>>;,=*.....",
"....*')!!!!!!)'*....",
"...+=)!!!!!!!!)~{...",
"...@-!!!!!!!!!!]@...",
"...^;!!!!!!!!!!/%...",
"...(>!!!!!!!!!!>_...",
"..._>!!!!!!!!!!:<...",
"...#;!!!!!!!!!!/%...",
"...&,!!!!!!!!!!][...",
"...+=)!!!!!!!!)}+...",
"....*')!!!!!!)'|....",
".....*1]/>>2]}|.....",
"......{@3((3[+......",
"....................",
"....................",
"....................",
"....................",
"....................",
"....................",
"....................",
"...................."};
