/* XPM */
static char * close_prelight_xpm[] = {
"20 30 42 1",
" 	c None",
".	c #034F84",
"+	c #474E80",
"@	c #A74B68",
"#	c #CD4852",
"$	c #DD4644",
"%	c #CD4952",
"&	c #A84B67",
"*	c #894C73",
"=	c #DE4745",
"-	c #EE514A",
";	c #F95A52",
">	c #FE5E56",
",	c #EE5149",
"'	c #E44941",
")	c #F95A53",
"!	c #FF5F57",
"~	c #DC4745",
"{	c #494F80",
"]	c #E6504D",
"^	c #C0373C",
"/	c #E7514D",
"(	c #EE5049",
"_	c #CE4851",
":	c #9F1F2C",
"<	c #9F1D2B",
"[	c #F85952",
"}	c #DC4644",
"|	c #C0383C",
"1	c #C1373C",
"2	c #DC4645",
"3	c #C1383C",
"4	c #FD5E55",
"5	c #DB4745",
"6	c #9F1F2B",
"7	c #E8514D",
"8	c #A64A68",
"9	c #DC4746",
"0	c #864D73",
"a	c #DC4747",
"b	c #F85A52",
"c	c #CC4852",
"....................",
"....................",
"....................",
"....................",
"....................",
"....................",
"....................",
"....................",
"......+@#$$%&+......",
".....*=-;>>;,=*.....",
"....*')!!!!!!)'*....",
"...+=)!!!!!!!!)~{...",
"...@-!!!]^^/!!!(@...",
"..._;!!]:<<:/!![%...",
"...}>!!|<<<<1!!>2...",
"...2>!!^<<<<3!!45...",
"...#;!!/:<<67!![%...",
"...&,!!!/117!!!(8...",
"...+=)!!!!!!!!)9+...",
"....*')!!!!!!)'0....",
".....*a([>>b(90.....",
"......{@c}}c8+......",
"....................",
"....................",
"....................",
"....................",
"....................",
"....................",
"....................",
"...................."};
