/* XPM */
static char * close_pressed_xpm[] = {
"20 30 53 1",
" 	c None",
".	c #034F84",
"+	c #674D7B",
"@	c #AF4A64",
"#	c #CF4850",
"$	c #DD4644",
"%	c #AE4B65",
"&	c #664E7B",
"*	c #274F83",
"=	c #B14A63",
"-	c #E34844",
";	c #F1534B",
">	c #F95A53",
",	c #FE5E56",
"'	c #F95A52",
")	c #F0534C",
"!	c #E34843",
"~	c #B14A64",
"{	c #234F83",
"]	c #C54857",
"^	c #EB4F47",
"/	c #FD5E56",
"(	c #FF5F57",
"_	c #EB4E47",
":	c #C54858",
"<	c #B24962",
"[	c #B14963",
"}	c #FD5E55",
"|	c #E34842",
"1	c #644E7C",
"2	c #E6504D",
"3	c #C0373C",
"4	c #E7514D",
"5	c #F0524B",
"6	c #AD4A65",
"7	c #D04750",
"8	c #9F1F2C",
"9	c #9F1D2B",
"0	c #DC4644",
"a	c #C0383C",
"b	c #C1373C",
"c	c #DC4645",
"d	c #C1383C",
"e	c #DB4745",
"f	c #9F1F2B",
"g	c #E8514D",
"h	c #F0534B",
"i	c #AC4B65",
"j	c #FD5D56",
"k	c #634E7C",
"l	c #C54957",
"m	c #C44958",
"n	c #1E4F83",
"....................",
"....................",
"....................",
"....................",
"....................",
"....................",
"....................",
"......+@#$$#%&......",
"....*=-;>,,')!~{....",
"...*]^/((((((/_:{...",
"...<^((((((((((_[...",
"..+-/((((((((((}|1..",
"..@;((((2334((((56..",
"..7>(((289984((('#..",
"..0,(((a9999b(((/c..",
"..c/(((39999d(((}e..",
"..7>(((4899fg((('#..",
"..%)((((4bbg((((hi..",
"..&!/((((((((((j|k..",
"...~_((((((((((_@...",
"...{l_}((((((j_mn...",
"....{[|5',,'h|@n....",
"......16#00#ik......",
"....................",
"....................",
"....................",
"....................",
"....................",
"....................",
"...................."};
