/* XPM */
static char * hide_active_xpm[] = {
"20 30 34 1",
" 	c None",
".	c #034F84",
"+	c #475A7F",
"@	c #A58161",
"#	c #CB9543",
"$	c #DB9E2C",
"%	c #CB9544",
"&	c #A68162",
"*	c #87726F",
"=	c #DB9E2E",
"-	c #EDAD28",
";	c #F7B72C",
">	c #FDBC2E",
",	c #877270",
"'	c #E2A325",
")	c #F8B72C",
"!	c #FEBD2E",
"~	c #DA9E2F",
"{	c #45597F",
"]	c #EDAC27",
"^	c #CC9643",
"/	c #F7B72B",
"(	c #F7B62C",
"_	c #DB9D2E",
":	c #FCBC2E",
"<	c #DA9D2E",
"[	c #FCBC2D",
"}	c #D99D2F",
"|	c #A58062",
"1	c #DA9D30",
"2	c #425A80",
"3	c #867170",
"4	c #DA9D2F",
"5	c #CA9445",
"....................",
"....................",
"....................",
"....................",
"....................",
"....................",
"....................",
"....................",
"......+@#$$%&+......",
".....*=-;>>;-=,.....",
"....*')!!!!!!)',....",
"...+=)!!!!!!!!)~{...",
"...@-!!!!!!!!!!]&...",
"...^/!!!!!!!!!!(%...",
"..._:!!!!!!!!!!:<...",
"...<:!!!!!!!!!![}...",
"...#/!!!!!!!!!!(%...",
"...&-!!!!!!!!!!]|...",
"...+=)!!!!!!!!)12...",
"....,')!!!!!!)'3....",
".....,4](::;]13.....",
"......{&5__5|2......",
"....................",
"....................",
"....................",
"....................",
"....................",
"....................",
"....................",
"...................."};
