/* XPM */
static char * hide_prelight_xpm[] = {
"20 30 41 1",
" 	c None",
".	c #034F84",
"+	c #475A7F",
"@	c #A58161",
"#	c #CB9543",
"$	c #DB9E2C",
"%	c #CB9544",
"&	c #A68162",
"*	c #87726F",
"=	c #DB9E2E",
"-	c #EDAD28",
";	c #F7B72C",
">	c #FDBC2E",
",	c #877270",
"'	c #E2A325",
")	c #F8B72C",
"!	c #FEBD2E",
"~	c #DA9E2F",
"{	c #45597F",
"]	c #E5A729",
"^	c #C2841F",
"/	c #E7A829",
"(	c #EDAC27",
"_	c #CC9643",
":	c #F7B72B",
"<	c #A16215",
"[	c #A16115",
"}	c #F7B62C",
"|	c #DB9D2E",
"1	c #FCBC2E",
"2	c #C1841F",
"3	c #DA9D2E",
"4	c #FCBC2D",
"5	c #D99D2F",
"6	c #A16316",
"7	c #A58062",
"8	c #DA9D30",
"9	c #425A80",
"0	c #867170",
"a	c #DA9D2F",
"b	c #CA9445",
"....................",
"....................",
"....................",
"....................",
"....................",
"....................",
"....................",
"....................",
"......+@#$$%&+......",
".....*=-;>>;-=,.....",
"....*')!!!!!!)',....",
"...+=)!!!!!!!!)~{...",
"...@-!!!]^^/!!!(&...",
"..._:!!]<[[</!!}%...",
"...|1!!2[[[[^!!13...",
"...31!!^[[[[^!!45...",
"...#:!!/<[[6/!!}%...",
"...&-!!!/^^/!!!(7...",
"...+=)!!!!!!!!)89...",
"....,')!!!!!!)'0....",
".....,a(}11;(80.....",
"......{&b||b79......",
"....................",
"....................",
"....................",
"....................",
"....................",
"....................",
"....................",
"...................."};
