/* XPM */
static char * hide_pressed_xpm[] = {
"20 30 53 1",
" 	c None",
".	c #034F84",
"+	c #646379",
"@	c #AD855D",
"#	c #CD9641",
"$	c #DB9E2C",
"%	c #AD845D",
"&	c #63647A",
"*	c #275282",
"=	c #B0865B",
"-	c #E1A226",
";	c #EFAF29",
">	c #F8B72C",
",	c #FDBC2E",
"'	c #F8B82C",
")	c #EEAF29",
"!	c #E1A127",
"~	c #AE865C",
"{	c #235383",
"]	c #C4914C",
"^	c #EAAA26",
"/	c #FCBB2E",
"(	c #FEBD2E",
"_	c #EAA926",
":	c #C3914C",
"<	c #B1865B",
"[	c #AF855C",
"}	c #FCBC2D",
"|	c #E1A227",
"1	c #64637A",
"2	c #E5A729",
"3	c #C2841F",
"4	c #E7A829",
"5	c #EEAE28",
"6	c #AC845E",
"7	c #CE9640",
"8	c #A16215",
"9	c #A16115",
"0	c #CE9642",
"a	c #DB9D2E",
"b	c #FCBC2E",
"c	c #C1841F",
"d	c #DA9D2E",
"e	c #D99D2F",
"f	c #A16316",
"g	c #EEAF28",
"h	c #AA835E",
"i	c #FCBB2D",
"j	c #63627A",
"k	c #E9AA27",
"l	c #C2904C",
"m	c #C3904D",
"n	c #1E5183",
"....................",
"....................",
"....................",
"....................",
"....................",
"....................",
"....................",
"......+@#$$#%&......",
"....*=-;>,,')!~{....",
"...*]^/((((((/_:{...",
"...<^((((((((((_[...",
"..+-/((((((((((}|1..",
"..@;((((2334((((56..",
"..7>(((289984((('0..",
"..ab(((c99993(((/d..",
"..d/(((399993(((}e..",
"..7>(((4899f4((('0..",
"..%)((((4334((((gh..",
"..&!/((((((((((i|j..",
"...~_((((((((((k@...",
"...{l_}((((((ikmn...",
"....{[|5>bb>g|@n....",
"......160aa0hj......",
"....................",
"....................",
"....................",
"....................",
"....................",
"....................",
"...................."};
