/* XPM */
static char * maximize_pressed_xpm[] = {
"20 30 51 1",
" 	c None",
".	c #034F84",
"+	c #10677A",
"@	c #238D5F",
"#	c #2CA046",
"$	c #2FA834",
"%	c #11687A",
"&	c #055482",
"*	c #248F5D",
"=	c #2FAD2F",
"-	c #2CBA36",
";	c #29C33C",
">	c #28C73F",
",	c #2FAC30",
"'	c #248E5E",
")	c #055383",
"!	c #29994F",
"~	c #2DB532",
"{	c #28C83F",
"]	c #28C940",
"^	c #2DB533",
"/	c #2A9A4F",
"(	c #238F5D",
"_	c #258E5E",
":	c #29C73E",
"<	c #11677A",
"[	c #22B334",
"}	c #16931F",
"|	c #22B434",
"1	c #2CBA37",
"2	c #238C60",
"3	c #2CA045",
"4	c #2AC43C",
"5	c #0C7409",
"6	c #0B7407",
"7	c #2B9F46",
"8	c #16921E",
"9	c #2FA835",
"0	c #17931F",
"a	c #2FA836",
"b	c #0C7509",
"c	c #22B534",
"d	c #248C60",
"e	c #29C73F",
"f	c #2FAD30",
"g	c #11667B",
"h	c #2EB533",
"i	c #28994F",
"j	c #299850",
"k	c #055183",
"l	c #29C43C",
"....................",
"....................",
"....................",
"....................",
"....................",
"....................",
"....................",
"......+@#$$#@%......",
"....&*=-;>>;-,')....",
"...&!~{]]]]]]{^/)...",
"...(~]]]]]]]]]]^_...",
"..+={]]]]]]]]]]:=<..",
"..@-]]]][}}|]]]]12..",
"..34]]][5665|]]];7..",
"..${]]]86666}]]]{9..",
"..9{]]]}66660]]]:a..",
"..3;]]]|566bc]]];7..",
"..@-]]]]|}}c]]]]-d..",
"..%,{]]]]]]]]]]efg..",
"...'^]]]]]]]]]]h@...",
"...)i^:]]]]]]ehjk...",
"....)_=1l{{l-f@k....",
"......<27$$7dg......",
"....................",
"....................",
"....................",
"....................",
"....................",
"....................",
"...................."};
