/* XPM */
static char * maximize_active_xpm[] = {
"20 30 36 1",
" 	c None",
".	c #034F84",
"+	c #0B5C7F",
"@	c #228963",
"#	c #2B9F47",
"$	c #2FA834",
"%	c #2B9E48",
"&	c #228863",
"*	c #1A7870",
"=	c #2FAA36",
"-	c #2CB835",
";	c #29C33B",
">	c #28C73F",
",	c #2CB834",
"'	c #1B7770",
")	c #2FAE2F",
"!	c #2AC43C",
"~	c #28C940",
"{	c #29C33C",
"]	c #0B5B80",
"^	c #2DB834",
"/	c #218863",
"(	c #2B9E47",
"_	c #2AC23B",
":	c #2AC33C",
"<	c #28C83F",
"[	c #2FA835",
"}	c #29C73E",
"|	c #2FA836",
"1	c #218864",
"2	c #2FA837",
"3	c #0B5A80",
"4	c #197771",
"5	c #2FA936",
"6	c #2AC23C",
"7	c #2C9D48",
"....................",
"....................",
"....................",
"....................",
"....................",
"....................",
"....................",
"....................",
"......+@#$$%&+......",
".....*=-;>>;,='.....",
"....*)!~~~~~~{)'....",
"...+=!~~~~~~~~{=]...",
"...@-~~~~~~~~~~^/...",
"...(_~~~~~~~~~~:%...",
"...$<~~~~~~~~~~<[...",
"...[<~~~~~~~~~~}|...",
"...#_~~~~~~~~~~:%...",
"...&,~~~~~~~~~~^1...",
"...+={~~~~~~~~{23...",
"....'){~~~~~~{)4....",
".....'5^:<<6^24.....",
"......]/7$$713......",
"....................",
"....................",
"....................",
"....................",
"....................",
"....................",
"....................",
"...................."};
