/* XPM */
static char * maximize_inactive_xpm[] = {
"20 30 26 1",
" 	c None",
".	c #034F84",
"+	c #43648D",
"@	c #9CA3B1",
"#	c #BEC1C5",
"$	c #CDCDCE",
"%	c #BEC0C5",
"&	c #9AA2B0",
"*	c #808DA3",
"=	c #CDCECF",
"-	c #D6D6D6",
";	c #DADADA",
">	c #DCDCDC",
",	c #7F8CA3",
"'	c #D2D2D2",
")	c #CECED0",
"!	c #40628C",
"~	c #D5D5D5",
"{	c #9BA3B1",
"]	c #D9D9D9",
"^	c #CCCDCE",
"/	c #DBDBDB",
"(	c #CDCDCF",
"_	c #CBCCCD",
":	c #3E618B",
"<	c #7D8AA2",
"....................",
"....................",
"....................",
"....................",
"....................",
"....................",
"....................",
"....................",
"......+@#$$%&+......",
".....*=-;>>;-=,.....",
"....*';>>>>>>;',....",
"...+=;>>>>>>>>;)!...",
"...@->>>>>>>>>>~{...",
"...%]>>>>>>>>>>;%...",
"...$>>>>>>>>>>>>^...",
"...^>>>>>>>>>>>/(...",
"...#]>>>>>>>>>>;%...",
"...&->>>>>>>>>>~{...",
"...+=;>>>>>>>>;_:...",
"....,';>>>>>>;'<....",
".....,(~;>>;~_<.....",
"......!{%$$%{:......",
"....................",
"....................",
"....................",
"....................",
"....................",
"....................",
"....................",
"...................."};
