/* XPM */
static char * maximize_prelight_xpm[] = {
"20 30 45 1",
" 	c None",
".	c #034F84",
"+	c #0B5C7F",
"@	c #228963",
"#	c #2B9F47",
"$	c #2FA834",
"%	c #2B9E48",
"&	c #228863",
"*	c #1A7870",
"=	c #2FAA36",
"-	c #2CB835",
";	c #29C33B",
">	c #28C73F",
",	c #2CB834",
"'	c #1B7770",
")	c #2FAE2F",
"!	c #2AC43C",
"~	c #28C940",
"{	c #29C33C",
"]	c #0B5B80",
"^	c #22B334",
"/	c #16931F",
"(	c #22B434",
"_	c #2DB834",
":	c #218863",
"<	c #2B9E47",
"[	c #2AC23B",
"}	c #0C7409",
"|	c #0B7407",
"1	c #2AC33C",
"2	c #28C83F",
"3	c #16921E",
"4	c #2FA835",
"5	c #17931F",
"6	c #29C73E",
"7	c #2FA836",
"8	c #0C7509",
"9	c #22B534",
"0	c #218864",
"a	c #2FA837",
"b	c #0B5A80",
"c	c #197771",
"d	c #2FA936",
"e	c #2AC23C",
"f	c #2C9D48",
"....................",
"....................",
"....................",
"....................",
"....................",
"....................",
"....................",
"....................",
"......+@#$$%&+......",
".....*=-;>>;,='.....",
"....*)!~~~~~~{)'....",
"...+=!~~~~~~~~{=]...",
"...@-~~~^//(~~~_:...",
"...<[~~^}||}(~~1%...",
"...$2~~3||||/~~24...",
"...42~~/||||5~~67...",
"...#[~~(}||89~~1%...",
"...&,~~~(//9~~~_0...",
"...+={~~~~~~~~{ab...",
"....'){~~~~~~{)c....",
".....'d_122e_ac.....",
"......]:f$$f0b......",
"....................",
"....................",
"....................",
"....................",
"....................",
"....................",
"....................",
"...................."};
